<mxfile host="app.diagrams.net" modified="2023-06-26T05:27:08.352Z" agent="Mozilla/5.0 (Macintosh; Intel Mac OS X 10_15_7) AppleWebKit/537.36 (KHTML, like Gecko) Chrome/114.0.0.0 Safari/537.36" version="21.5.0" etag="dinESe1OxbZ0yHkuHGCt" type="github">
  <diagram name="Page-1" id="M1iQVzzMV-01OJs4M6Ek">
    <mxGraphModel>
      <root>
        <mxCell id="0" />
        <mxCell id="1" parent="0" />
      </root>
    </mxGraphModel>
  </diagram>
</mxfile>
